<svg width="742" height="467" viewBox="0 0 742 467" fill="none" xmlns="http://www.w3.org/2000/svg">
<rect width="742" height="467" fill="#3336FF"/>
<path d="M140.167 185L144.333 193.292H136L140.167 185ZM123.5 185L127.667 193.292H119.333L123.5 185ZM131.833 185L136 193.292H127.667L131.833 185ZM115.167 193.292L119.333 201.583H111L115.167 193.292ZM131.833 193.292L136 201.583H127.667L131.833 193.292ZM123.5 193.292L127.667 201.583H119.333L123.5 193.292ZM106.833 201.583L111 209.875H102.667L106.833 201.583ZM115.167 201.583L119.333 209.875H111L115.167 201.583ZM123.5 201.583L127.667 209.875H119.333L123.5 201.583ZM148.5 226.458L152.667 234.75H144.333L148.5 226.458ZM81.8333 226.458L86 234.75H77.6667L81.8333 226.458ZM140.167 226.458L144.333 234.75H136L140.167 226.458ZM65.1667 226.458L69.3333 234.75H61L65.1667 226.458ZM131.833 226.458L136 234.75H127.667L131.833 226.458ZM123.5 226.458L127.667 234.75H119.333L123.5 226.458ZM73.5 226.458L77.6667 234.75H69.3333L73.5 226.458ZM115.167 226.458L119.333 234.75H111L115.167 226.458ZM106.833 226.458L111 234.75H102.667L106.833 226.458ZM98.5 226.458L102.667 234.75H94.3333L98.5 226.458ZM90.1667 226.458L94.3333 234.75H86L90.1667 226.458ZM156.833 226.458L161 234.75H152.667L156.833 226.458ZM140.167 234.75L144.333 243.042H136L140.167 234.75ZM148.5 234.75L152.667 243.042H144.333L148.5 234.75ZM131.833 234.75L136 243.042H127.667L131.833 234.75ZM123.5 234.75L127.667 243.042H119.333L123.5 234.75ZM115.167 234.75L119.333 243.042H111L115.167 234.75ZM106.833 234.75L111 243.042H102.667L106.833 234.75ZM90.1667 234.75L94.3333 243.042H86L90.1667 234.75ZM81.8333 234.75L86 243.042H77.6667L81.8333 234.75ZM156.833 234.75L161 243.042H152.667L156.833 234.75ZM98.5 234.75L102.667 243.042H94.3333L98.5 234.75ZM73.5 234.75L77.6667 243.042H69.3333L73.5 234.75ZM65.1667 234.75L69.3333 243.042H61L65.1667 234.75ZM65.1667 243.042L69.3333 251.333H61L65.1667 243.042ZM73.5 243.042L77.6667 251.333H69.3333L73.5 243.042ZM65.1667 251.333L69.3333 259.625H61L65.1667 251.333ZM73.5 251.333L77.6667 259.625H69.3333L73.5 251.333ZM65.1667 259.625L69.3333 267.917H61L65.1667 259.625ZM73.5 259.625L77.6667 267.917H69.3333L73.5 259.625ZM65.1667 267.917L69.3333 276.208H61L65.1667 267.917ZM73.5 267.917L77.6667 276.208H69.3333L73.5 267.917ZM65.1667 276.208L69.3333 284.5H61L65.1667 276.208ZM73.5 276.208L77.6667 284.5H69.3333L73.5 276.208ZM73.5 284.5L77.6667 292.792H69.3333L73.5 284.5ZM65.1667 284.5L69.3333 292.792H61L65.1667 284.5ZM106.833 292.792L111 301.083H102.667L106.833 292.792ZM115.167 292.792L119.333 301.083H111L115.167 292.792ZM148.5 292.792L152.667 301.083H144.333L148.5 292.792ZM140.167 292.792L144.333 301.083H136L140.167 292.792ZM131.833 292.792L136 301.083H127.667L131.833 292.792ZM123.5 292.792L127.667 301.083H119.333L123.5 292.792ZM98.5 292.792L102.667 301.083H94.3333L98.5 292.792ZM90.1667 292.792L94.3333 301.083H86L90.1667 292.792ZM81.8333 292.792L86 301.083H77.6667L81.8333 292.792ZM156.833 292.792L161 301.083H152.667L156.833 292.792ZM73.5 292.792L77.6667 301.083H69.3333L73.5 292.792ZM65.1667 292.792L69.3333 301.083H61L65.1667 292.792ZM90.1667 301.083L94.3333 309.375H86L90.1667 301.083ZM98.5 301.083L102.667 309.375H94.3333L98.5 301.083ZM106.833 301.083L111 309.375H102.667L106.833 301.083ZM115.167 301.083L119.333 309.375H111L115.167 301.083ZM123.5 301.083L127.667 309.375H119.333L123.5 301.083ZM131.833 301.083L136 309.375H127.667L131.833 301.083ZM140.167 301.083L144.333 309.375H136L140.167 301.083ZM148.5 301.083L152.667 309.375H144.333L148.5 301.083ZM73.5 301.083L77.6667 309.375H69.3333L73.5 301.083ZM156.833 301.083L161 309.375H152.667L156.833 301.083ZM65.1667 301.083L69.3333 309.375H61L65.1667 301.083ZM81.8333 301.083L86 309.375H77.6667L81.8333 301.083ZM73.5 309.375L77.6667 317.667H69.3333L73.5 309.375ZM65.1667 309.375L69.3333 317.667H61L65.1667 309.375ZM73.5 317.667L77.6667 325.958H69.3333L73.5 317.667ZM65.1667 317.667L69.3333 325.958H61L65.1667 317.667ZM73.5 325.958L77.6667 334.25H69.3333L73.5 325.958ZM65.1667 325.958L69.3333 334.25H61L65.1667 325.958ZM73.5 334.25L77.6667 342.542H69.3333L73.5 334.25ZM65.1667 334.25L69.3333 342.542H61L65.1667 334.25ZM73.5 342.542L77.6667 350.833H69.3333L73.5 342.542ZM65.1667 342.542L69.3333 350.833H61L65.1667 342.542ZM65.1667 350.833L69.3333 359.125H61L65.1667 350.833ZM73.5 350.833L77.6667 359.125H69.3333L73.5 350.833ZM73.5 359.125L77.6667 367.417H69.3333L73.5 359.125ZM65.1667 359.125L69.3333 367.417H61L65.1667 359.125ZM73.5 367.417L77.6667 375.708H69.3333L73.5 367.417ZM156.833 367.417L161 375.708H152.667L156.833 367.417ZM65.1667 367.417L69.3333 375.708H61L65.1667 367.417ZM115.167 367.417L119.333 375.708H111L115.167 367.417ZM148.5 367.417L152.667 375.708H144.333L148.5 367.417ZM140.167 367.417L144.333 375.708H136L140.167 367.417ZM131.833 367.417L136 375.708H127.667L131.833 367.417ZM123.5 367.417L127.667 375.708H119.333L123.5 367.417ZM106.833 367.417L111 375.708H102.667L106.833 367.417ZM98.5 367.417L102.667 375.708H94.3333L98.5 367.417ZM81.8333 367.417L86 375.708H77.6667L81.8333 367.417ZM90.1667 367.417L94.3333 375.708H86L90.1667 367.417ZM156.833 375.708L161 384H152.667L156.833 375.708ZM73.5 375.708L77.6667 384H69.3333L73.5 375.708ZM65.1667 375.708L69.3333 384H61L65.1667 375.708ZM115.167 375.708L119.333 384H111L115.167 375.708ZM148.5 375.708L152.667 384H144.333L148.5 375.708ZM140.167 375.708L144.333 384H136L140.167 375.708ZM131.833 375.708L136 384H127.667L131.833 375.708ZM123.5 375.708L127.667 384H119.333L123.5 375.708ZM106.833 375.708L111 384H102.667L106.833 375.708ZM98.5 375.708L102.667 384H94.3333L98.5 375.708ZM90.1667 375.708L94.3333 384H86L90.1667 375.708ZM81.8333 375.708L86 384H77.6667L81.8333 375.708Z" fill="white"/>
<path d="M206.532 360.002V228.701H188.662V361.523L188.685 362.916C188.926 369.754 190.974 374.806 194.83 378.073C198.686 381.339 203.602 383.075 209.577 383.279L210.788 383.299H223.338V367.185H213.554V365.484H225V385H210.788C204.392 385 198.965 383.392 194.625 380.069L193.772 379.385C189.147 375.468 187 369.375 187 361.523V227H208.194V360.002L208.217 360.736C208.319 362.326 208.761 363.446 209.412 364.235C210.296 365.002 211.609 365.484 213.554 365.484V367.185L212.726 367.158C210.849 367.031 209.351 366.46 208.233 365.444C207.241 364.301 206.683 362.769 206.558 360.849L206.532 360.002Z" fill="white"/>
<path d="M262.302 377.168V381.3H303.798V377.168H262.302ZM328.695 377.168V381.3H345.294V377.168H328.695ZM254.004 368.899V373.035H312.099V368.899H254.004ZM320.397 368.899V373.035H345.294V368.899H320.397ZM245.706 360.633V364.766H262.302V360.633H245.706ZM312.099 360.633V364.766H336.996V360.633H312.099ZM245.706 352.368V356.501H262.302V352.368H245.706ZM320.397 352.368V356.501H336.996V352.368H320.397ZM245.706 344.099V348.235H262.302V344.099H245.706ZM320.397 344.099V348.235H336.996V344.099H320.397ZM245.706 335.834V339.966H270.603V335.834H245.706ZM320.397 335.834V339.966H336.996V335.834H320.397ZM254.004 327.568V331.701H312.099V327.568H254.004ZM320.397 327.568V331.701H336.996V327.568H320.397ZM270.603 319.299V323.432H336.996V319.299H270.603ZM312.099 311.034V315.166H336.996V311.034H312.099ZM320.397 302.768V306.901H336.996V302.768H320.397ZM245.706 294.499V298.632H262.302V294.499H245.706ZM320.397 294.499V298.632H336.996V294.499H320.397ZM245.706 286.234V290.367H270.603V286.234H245.706ZM312.099 286.234V290.367H328.695V286.234H312.099ZM254.004 277.965V282.101H328.695V277.965H254.004ZM270.603 269.7V273.832H312.099V269.7H270.603ZM305.504 383H260.596V375.468H305.504V383ZM347 383H326.989V375.468H347V383ZM313.805 374.734H252.298V367.199H313.805V374.734ZM347 374.734H318.691V367.199H347V374.734ZM264.008 366.466H244V358.934H264.008V366.466ZM338.702 366.466H310.393V358.934H338.702V366.466ZM264.008 358.2H244V350.668H264.008V358.2ZM338.702 358.2H318.691V350.668H338.702V358.2ZM264.008 349.935H244V342.399H264.008V349.935ZM338.702 349.935H318.691V342.399H338.702V349.935ZM272.309 341.666H244V334.134H272.309V341.666ZM338.702 341.666H318.691V334.134H338.702V341.666ZM313.805 333.4H252.298V325.868H313.805V333.4ZM338.702 333.4H318.691V325.868H338.702V333.4ZM338.702 325.132H268.897V317.6H338.702V325.132ZM338.702 316.866H310.393V309.334H338.702V316.866ZM338.702 308.601H318.691V301.069H338.702V308.601ZM264.008 300.332H244V292.8H264.008V300.332ZM338.702 300.332H318.691V292.8H338.702V300.332ZM272.309 292.066H244V284.534H272.309V292.066ZM330.401 292.066H310.393V284.534H330.401V292.066ZM330.401 283.801H252.298V276.266H330.401V283.801ZM313.805 275.532H268.897V268H313.805V275.532Z" fill="white"/>
<path d="M384.359 377.125C384.359 374.865 382.82 373.184 380.642 372.982L380.198 372.962C377.788 372.963 376.036 374.715 376.036 377.125C376.036 374.866 374.496 373.184 372.318 372.982L371.874 372.962C369.464 372.962 367.712 374.715 367.712 377.125L367.732 377.57C367.92 379.603 369.397 381.08 371.429 381.268L371.874 381.288C374.132 381.288 375.814 379.748 376.015 377.57L376.036 377.125L376.056 377.57C376.257 379.748 377.939 381.288 380.198 381.288C382.456 381.288 384.137 379.748 384.339 377.57L384.359 377.125ZM459.288 377.125C459.288 374.865 457.747 373.183 455.568 372.982L455.126 372.962C452.717 372.962 450.961 374.715 450.961 377.125C450.961 374.865 449.422 373.184 447.244 372.982L446.799 372.962C444.39 372.963 442.637 374.715 442.637 377.125L442.657 377.57C442.859 379.748 444.541 381.288 446.799 381.288C449.058 381.288 450.739 379.748 450.941 377.57L450.961 377.125L450.981 377.57C451.17 379.603 452.649 381.08 454.682 381.268L455.126 381.288C457.385 381.287 459.066 379.748 459.268 377.57L459.288 377.125ZM384.359 368.796C384.359 366.387 382.607 364.633 380.198 364.633C377.789 364.634 376.036 366.387 376.036 368.796C376.035 366.537 374.496 364.855 372.318 364.653L371.874 364.633C369.464 364.633 367.712 366.387 367.712 368.796L367.732 369.241C367.919 371.275 369.396 372.754 371.429 372.942L371.874 372.962C374.283 372.962 376.036 371.207 376.036 368.796C376.036 371.057 377.577 372.742 379.756 372.942L380.198 372.962C382.607 372.962 384.359 371.207 384.359 368.796ZM459.288 368.796C459.288 366.537 457.746 364.854 455.568 364.653L455.126 364.633C452.717 364.633 450.962 366.387 450.961 368.796C450.96 366.387 449.209 364.633 446.799 364.633C444.39 364.634 442.638 366.387 442.637 368.796C442.637 371.056 444.177 372.74 446.355 372.942L446.799 372.962C449.209 372.962 450.961 371.207 450.961 368.796C450.961 371.056 452.503 372.741 454.682 372.942L455.126 372.962C457.385 372.962 459.067 371.42 459.268 369.241L459.288 368.796ZM384.359 360.471C384.359 358.211 382.82 356.529 380.642 356.328L380.198 356.308C377.788 356.308 376.036 358.061 376.036 360.471C376.035 358.211 374.496 356.53 372.318 356.328L371.874 356.308C369.464 356.308 367.712 358.06 367.712 360.471L367.732 360.915C367.92 362.948 369.396 364.425 371.429 364.613L371.874 364.633C374.283 364.633 376.036 362.881 376.036 360.471C376.036 362.881 377.788 364.633 380.198 364.633C382.607 364.633 384.359 362.881 384.359 360.471ZM459.288 360.471C459.288 358.21 457.747 356.529 455.568 356.328L455.126 356.308C452.717 356.308 450.961 358.06 450.961 360.471C450.961 358.211 449.422 356.529 447.244 356.328L446.799 356.308C444.39 356.308 442.637 358.061 442.637 360.471C442.637 362.881 444.39 364.633 446.799 364.633C449.209 364.633 450.961 362.881 450.961 360.471C450.961 362.73 452.503 364.412 454.682 364.613L455.126 364.633C457.385 364.633 459.067 363.093 459.268 360.915L459.288 360.471ZM384.359 352.145C384.359 349.885 382.82 348.203 380.642 348.002L380.198 347.982C377.788 347.982 376.036 349.735 376.036 352.145C376.036 349.885 374.496 348.204 372.318 348.002L371.874 347.982C369.464 347.982 367.712 349.734 367.712 352.145L367.732 352.586C367.919 354.62 369.396 356.099 371.429 356.288L371.874 356.308C374.133 356.308 375.815 354.766 376.015 352.586L376.036 352.145L376.056 352.586C376.243 354.621 377.722 356.1 379.756 356.288L380.198 356.308C382.457 356.308 384.139 354.766 384.339 352.586L384.359 352.145ZM459.288 352.145C459.288 349.885 457.747 348.203 455.568 348.002L455.126 347.982C452.717 347.982 450.961 349.734 450.961 352.145C450.961 349.885 449.422 348.204 447.244 348.002L446.799 347.982C444.39 347.982 442.637 349.735 442.637 352.145L442.657 352.586C442.844 354.62 444.322 356.099 446.355 356.288L446.799 356.308C449.059 356.308 450.74 354.766 450.941 352.586L450.961 352.145L450.981 352.586C451.168 354.621 452.648 356.1 454.682 356.288L455.126 356.308C457.386 356.307 459.068 354.765 459.268 352.586L459.288 352.145ZM384.359 343.816C384.359 341.406 382.607 339.653 380.198 339.653C377.788 339.653 376.036 341.406 376.036 343.816C376.035 341.557 374.496 339.875 372.318 339.673L371.874 339.653C369.464 339.653 367.712 341.406 367.712 343.816L367.732 344.261C367.919 346.294 369.396 347.77 371.429 347.959L371.874 347.982C374.283 347.982 376.036 346.226 376.036 343.816C376.036 346.076 377.577 347.758 379.756 347.959L380.198 347.982C382.607 347.982 384.359 346.226 384.359 343.816ZM459.288 343.816C459.288 341.556 457.746 339.874 455.568 339.673L455.126 339.653C452.717 339.653 450.962 341.406 450.961 343.816C450.961 341.406 449.209 339.653 446.799 339.653C444.39 339.653 442.638 341.406 442.637 343.816C442.637 346.075 444.177 347.757 446.355 347.959L446.799 347.982C449.209 347.982 450.961 346.226 450.961 343.816C450.961 346.076 452.503 347.757 454.682 347.959L455.126 347.982C457.385 347.981 459.067 346.439 459.268 344.261L459.288 343.816ZM384.359 335.49C384.359 333.23 382.82 331.549 380.642 331.347L380.198 331.327C377.788 331.328 376.036 333.08 376.036 335.49C376.036 333.231 374.496 331.549 372.318 331.347L371.874 331.327C369.464 331.327 367.712 333.08 367.712 335.49L367.732 335.935C367.92 337.968 369.396 339.445 371.429 339.633L371.874 339.653C374.132 339.653 375.814 338.113 376.015 335.935L376.036 335.49L376.056 335.935C376.257 338.113 377.939 339.653 380.198 339.653C382.456 339.653 384.138 338.113 384.339 335.935L384.359 335.49ZM459.288 335.49C459.288 333.23 457.747 331.548 455.568 331.347L455.126 331.327C452.717 331.327 450.961 333.08 450.961 335.49C450.961 333.23 449.422 331.549 447.244 331.347L446.799 331.327C444.39 331.328 442.637 333.08 442.637 335.49L442.657 335.935C442.859 338.113 444.541 339.653 446.799 339.653C449.058 339.653 450.739 338.113 450.941 335.935L450.961 335.49L450.981 335.935C451.169 337.968 452.649 339.445 454.682 339.633L455.126 339.653C457.385 339.652 459.067 338.113 459.268 335.935L459.288 335.49ZM384.359 327.165C384.359 324.754 382.607 322.998 380.198 322.998C377.788 322.999 376.036 324.754 376.036 327.165C376.036 324.905 374.496 323.22 372.318 323.018L371.874 322.998C369.464 322.998 367.712 324.754 367.712 327.165L367.732 327.606C367.919 329.64 369.396 331.119 371.429 331.307L371.874 331.327C374.133 331.327 375.815 329.785 376.015 327.606L376.036 327.165L376.056 327.606C376.243 329.641 377.722 331.12 379.756 331.307L380.198 331.327C382.457 331.327 384.139 329.785 384.339 327.606L384.359 327.165ZM459.288 327.165C459.288 324.904 457.747 323.219 455.568 323.018L455.126 322.998C452.717 322.998 450.961 324.754 450.961 327.165C450.961 324.754 449.209 322.998 446.799 322.998C444.39 322.999 442.637 324.754 442.637 327.165L442.657 327.606C442.845 329.64 444.322 331.119 446.355 331.307L446.799 331.327C449.059 331.327 450.74 329.785 450.941 327.606L450.961 327.165L450.981 327.606C451.169 329.64 452.648 331.12 454.682 331.307L455.126 331.327C457.386 331.327 459.068 329.785 459.268 327.606L459.288 327.165ZM384.359 318.835C384.359 316.425 382.607 314.673 380.198 314.673C377.788 314.673 376.036 316.426 376.036 318.835C376.035 316.576 374.496 314.895 372.318 314.693L371.874 314.673C369.464 314.673 367.712 316.425 367.712 318.835L367.732 319.28C367.92 321.313 369.396 322.79 371.429 322.978L371.874 322.998C374.283 322.998 376.036 321.246 376.036 318.835C376.036 321.246 377.788 322.998 380.198 322.998C382.607 322.998 384.359 321.246 384.359 318.835ZM459.288 318.835C459.288 316.576 457.746 314.894 455.568 314.693L455.126 314.673C452.717 314.673 450.962 316.425 450.961 318.835C450.961 316.425 449.209 314.673 446.799 314.673C444.39 314.673 442.638 316.426 442.637 318.835C442.637 321.246 444.39 322.998 446.799 322.998C449.209 322.998 450.961 321.246 450.961 318.835C450.961 321.095 452.503 322.777 454.682 322.978L455.126 322.998C457.385 322.998 459.067 321.459 459.268 319.28L459.288 318.835ZM384.359 310.51C384.359 308.25 382.82 306.568 380.642 306.367L380.198 306.347C377.788 306.347 376.036 308.1 376.036 310.51C376.036 308.25 374.496 306.569 372.318 306.367L371.874 306.347C369.464 306.347 367.712 308.099 367.712 310.51L367.732 310.955C367.92 312.987 369.397 314.464 371.429 314.653L371.874 314.673C374.132 314.673 375.814 313.133 376.015 310.955L376.036 310.51L376.056 310.955C376.257 313.132 377.939 314.672 380.198 314.673C382.456 314.673 384.138 313.133 384.339 310.955L384.359 310.51ZM459.288 310.51C459.288 308.25 457.747 306.568 455.568 306.367L455.126 306.347C452.717 306.347 450.961 308.099 450.961 310.51C450.961 308.25 449.422 306.568 447.244 306.367L446.799 306.347C444.39 306.347 442.637 308.1 442.637 310.51L442.657 310.955C442.859 313.132 444.541 314.672 446.799 314.673C449.058 314.673 450.739 313.133 450.941 310.955L450.961 310.51L450.981 310.955C451.17 312.988 452.649 314.465 454.682 314.653L455.126 314.673C457.385 314.672 459.067 313.132 459.268 310.955L459.288 310.51ZM384.359 302.184C384.359 299.774 382.607 298.018 380.198 298.018C377.788 298.018 376.036 299.774 376.036 302.184C376.036 299.925 374.496 298.24 372.318 298.038L371.874 298.018C369.464 298.018 367.712 299.774 367.712 302.184L367.732 302.626C367.919 304.659 369.396 306.139 371.429 306.327L371.874 306.347C374.133 306.347 375.815 304.805 376.015 302.626L376.036 302.184L376.056 302.626C376.243 304.66 377.722 306.14 379.756 306.327L380.198 306.347C382.457 306.347 384.138 304.805 384.339 302.626L384.359 302.184ZM459.288 302.184C459.288 299.924 457.747 298.239 455.568 298.038L455.126 298.018C452.717 298.018 450.961 299.774 450.961 302.184C450.961 299.774 449.209 298.018 446.799 298.018C444.39 298.018 442.637 299.774 442.637 302.184L442.657 302.626C442.845 304.659 444.322 306.138 446.355 306.327L446.799 306.347C449.059 306.347 450.74 304.805 450.941 302.626L450.961 302.184L450.981 302.626C451.169 304.66 452.648 306.139 454.682 306.327L455.126 306.347C457.385 306.346 459.067 304.804 459.268 302.626L459.288 302.184ZM384.359 293.855C384.359 291.596 382.82 289.914 380.642 289.712L380.198 289.692C377.788 289.693 376.036 291.445 376.036 293.855C376.035 291.596 374.496 289.914 372.318 289.712L371.874 289.692C369.464 289.692 367.712 291.445 367.712 293.855L367.732 294.3C367.92 296.333 369.396 297.81 371.429 297.998L371.874 298.018C374.283 298.018 376.036 296.265 376.036 293.855C376.036 296.265 377.788 298.018 380.198 298.018C382.607 298.018 384.359 296.266 384.359 293.855ZM459.288 293.855C459.288 291.595 457.747 289.913 455.568 289.712L455.126 289.692C452.717 289.692 450.961 291.445 450.961 293.855C450.961 291.596 449.422 289.914 447.244 289.712L446.799 289.692C444.39 289.693 442.637 291.445 442.637 293.855C442.637 296.265 444.39 298.018 446.799 298.018C449.209 298.018 450.961 296.266 450.961 293.855C450.961 296.115 452.503 297.797 454.682 297.998L455.126 298.018C457.385 298.017 459.067 296.478 459.268 294.3L459.288 293.855ZM392.687 285.529C392.687 283.269 391.145 281.588 388.966 281.387L388.525 281.367C386.115 281.367 384.359 283.119 384.359 285.529C384.359 283.27 382.82 281.588 380.642 281.387L380.198 281.367C377.788 281.367 376.036 283.119 376.036 285.529C376.036 283.27 374.496 281.589 372.318 281.387L371.874 281.367C369.464 281.367 367.712 283.119 367.712 285.529L367.732 285.974C367.92 288.007 369.397 289.484 371.429 289.672L371.874 289.692C374.132 289.692 375.813 288.152 376.015 285.974L376.036 285.529L376.056 285.974C376.244 288.007 377.723 289.485 379.756 289.672L380.198 289.692C382.456 289.692 384.137 288.152 384.339 285.974L384.359 285.529L384.383 285.974C384.571 288.007 386.047 289.484 388.08 289.672L388.525 289.692C390.783 289.692 392.465 288.152 392.667 285.974L392.687 285.529ZM459.288 285.529C459.288 283.269 457.747 281.588 455.568 281.387L455.126 281.367C452.717 281.367 450.961 283.119 450.961 285.529C450.961 283.27 449.422 281.588 447.244 281.387L446.799 281.367C444.39 281.367 442.637 283.119 442.637 285.529C442.637 283.27 441.097 281.589 438.92 281.387L438.475 281.367C436.065 281.367 434.313 283.119 434.313 285.529L434.333 285.974C434.522 288.007 435.998 289.484 438.031 289.672L438.475 289.692C440.734 289.692 442.415 288.152 442.617 285.974L442.637 285.529L442.657 285.974C442.846 288.006 444.323 289.484 446.355 289.672L446.799 289.692C449.058 289.692 450.739 288.152 450.941 285.974L450.961 285.529L450.981 285.974C451.17 288.007 452.649 289.485 454.682 289.672L455.126 289.692C457.385 289.692 459.066 288.152 459.268 285.974L459.288 285.529ZM384.359 277.2C384.359 274.791 382.607 273.038 380.198 273.038C377.789 273.038 376.036 274.791 376.036 277.2C376.035 274.942 374.496 273.259 372.318 273.058L371.874 273.038C369.464 273.038 367.712 274.791 367.712 277.2L367.732 277.645C367.919 279.679 369.396 281.158 371.429 281.347L371.874 281.367C374.283 281.367 376.036 279.611 376.036 277.2C376.036 279.461 377.577 281.146 379.756 281.347L380.198 281.367C382.607 281.367 384.359 279.611 384.359 277.2ZM450.961 277.2C450.96 274.791 449.209 273.038 446.799 273.038C444.39 273.038 442.638 274.791 442.637 277.2C442.637 274.942 441.097 273.26 438.92 273.058L438.475 273.038C436.066 273.038 434.314 274.791 434.313 277.2C434.313 274.791 432.557 273.038 430.148 273.038C427.739 273.038 425.987 274.791 425.986 277.2C425.985 274.791 424.233 273.038 421.824 273.038C419.415 273.038 417.663 274.791 417.662 277.2C417.661 274.942 416.122 273.26 413.945 273.058L413.5 273.038C411.091 273.038 409.339 274.791 409.338 277.2C409.337 274.791 407.582 273.038 405.173 273.038C402.764 273.038 401.011 274.791 401.011 277.2C401.01 274.791 399.258 273.038 396.849 273.038C394.439 273.038 392.687 274.791 392.687 277.2L392.707 277.645C392.895 279.679 394.371 281.158 396.404 281.347L396.849 281.367C399.259 281.367 401.011 279.611 401.011 277.2C401.011 279.461 402.552 281.146 404.731 281.347L405.173 281.367C407.432 281.367 409.117 279.824 409.318 277.645L409.338 277.2L409.358 277.645C409.546 279.679 411.022 281.159 413.055 281.347L413.5 281.367C415.759 281.366 417.441 279.824 417.642 277.645L417.662 277.2L417.682 277.645C417.87 279.679 419.347 281.158 421.379 281.347L421.824 281.367C424.234 281.367 425.986 279.611 425.986 277.2C425.986 279.461 427.528 281.146 429.707 281.347L430.148 281.367C432.407 281.367 434.092 279.824 434.293 277.645L434.313 277.2L434.333 277.645C434.521 279.679 435.997 281.159 438.031 281.347L438.475 281.367C440.885 281.366 442.637 279.611 442.637 277.2C442.637 279.46 444.177 281.145 446.355 281.347L446.799 281.367C449.209 281.367 450.961 279.611 450.961 277.2ZM384.359 268.875C384.359 266.615 382.82 264.933 380.642 264.732L380.198 264.712C377.788 264.712 376.036 266.465 376.036 268.875C376.035 266.615 374.496 264.934 372.318 264.732L371.874 264.712C369.464 264.712 367.712 266.464 367.712 268.875L367.732 269.319C367.92 271.352 369.396 272.829 371.429 273.018L371.874 273.038C374.283 273.037 376.036 271.285 376.036 268.875C376.036 271.285 377.788 273.037 380.198 273.038C382.607 273.038 384.359 271.285 384.359 268.875ZM442.637 268.875C442.637 266.615 441.097 264.934 438.92 264.732L438.475 264.712C436.065 264.712 434.313 266.464 434.313 268.875C434.313 266.615 432.771 264.933 430.593 264.732L430.148 264.712C427.739 264.713 425.986 266.465 425.986 268.875C425.986 266.615 424.447 264.934 422.269 264.732L421.824 264.712C419.414 264.712 417.662 266.465 417.662 268.875C417.662 266.616 416.122 264.934 413.945 264.732L413.5 264.712C411.09 264.712 409.338 266.464 409.338 268.875C409.338 266.615 407.796 264.933 405.617 264.732L405.173 264.712C402.764 264.713 401.011 266.465 401.011 268.875C401.011 271.285 402.763 273.037 405.173 273.038C407.432 273.038 409.116 271.498 409.318 269.319L409.338 268.875L409.358 269.319C409.546 271.353 411.023 272.83 413.055 273.018L413.5 273.038C415.759 273.037 417.44 271.498 417.642 269.319L417.662 268.875L417.682 269.319C417.884 271.498 419.565 273.037 421.824 273.038C424.234 273.038 425.986 271.285 425.986 268.875C425.986 271.285 427.739 273.037 430.148 273.038C432.407 273.038 434.092 271.498 434.293 269.319L434.313 268.875L434.333 269.319C434.521 271.352 435.998 272.829 438.031 273.018L438.475 273.038C440.885 273.037 442.637 271.285 442.637 268.875ZM444.349 268.875C444.349 270.295 443.894 271.563 443.119 272.556C444.111 271.781 445.379 271.326 446.799 271.326C450.154 271.326 452.672 273.845 452.673 277.2C452.673 278.622 452.218 279.892 451.443 280.885C452.436 280.109 453.705 279.655 455.126 279.655C458.481 279.655 461 282.174 461 285.529L460.97 286.148C460.836 287.552 460.249 288.777 459.349 289.692C460.379 290.739 461 292.194 461 293.855L460.97 294.474C460.837 295.878 460.249 297.103 459.349 298.018C460.38 299.065 461 300.522 461 302.184L460.97 302.803C460.836 304.206 460.248 305.429 459.349 306.344C460.38 307.391 461 308.847 461 310.51L460.97 311.128C460.837 312.532 460.249 313.758 459.349 314.673C460.379 315.72 461 317.174 461 318.835L460.97 319.454C460.837 320.858 460.249 322.083 459.349 322.998C460.38 324.046 461 325.502 461 327.165L460.97 327.783C460.836 329.186 460.248 330.409 459.349 331.324C460.38 332.371 461 333.828 461 335.49L460.97 336.109C460.837 337.513 460.249 338.738 459.349 339.653C460.379 340.7 461 342.154 461 343.816L460.97 344.434C460.837 345.839 460.249 347.063 459.349 347.979C460.38 349.026 461 350.483 461 352.145L460.97 352.763C460.836 354.167 460.249 355.393 459.349 356.308C460.379 357.355 461 358.809 461 360.471L460.97 361.089C460.837 362.493 460.249 363.718 459.349 364.633C460.379 365.68 461 367.135 461 368.796L460.97 369.418C460.836 370.821 460.248 372.044 459.349 372.959C460.38 374.006 461 375.463 461 377.125L460.97 377.744C460.681 380.785 458.271 382.999 455.126 383C453.465 383 452.008 382.38 450.961 381.348C449.914 382.379 448.46 383 446.799 383C443.445 383 440.926 380.481 440.926 377.125C440.926 375.464 441.543 374.006 442.574 372.959C441.544 371.912 440.926 370.457 440.926 368.796C440.926 367.136 441.544 365.68 442.574 364.633C441.544 363.586 440.926 362.131 440.926 360.471C440.926 358.81 441.544 357.355 442.574 356.308C441.544 355.261 440.926 353.806 440.926 352.145C440.926 350.483 441.543 349.026 442.574 347.979C441.544 346.932 440.926 345.476 440.926 343.816C440.926 342.155 441.544 340.7 442.574 339.653C441.544 338.606 440.926 337.151 440.926 335.49C440.926 333.828 441.543 332.371 442.574 331.324C441.545 330.277 440.926 328.824 440.926 327.165C440.926 325.503 441.543 324.046 442.574 322.998C441.544 321.951 440.926 320.496 440.926 318.835C440.926 317.175 441.544 315.72 442.574 314.673C441.544 313.626 440.926 312.171 440.926 310.51C440.926 308.848 441.543 307.391 442.574 306.344C441.545 305.297 440.926 303.844 440.926 302.184C440.926 300.523 441.543 299.065 442.574 298.018C441.544 296.971 440.926 295.516 440.926 293.855C440.926 292.43 441.383 291.158 442.162 290.164C441.168 290.943 439.9 291.404 438.475 291.404C435.12 291.404 432.602 288.885 432.602 285.529C432.602 284.109 433.053 282.838 433.828 281.845C432.836 282.62 431.568 283.079 430.148 283.079C428.486 283.078 427.033 282.455 425.986 281.423C424.939 282.455 423.486 283.079 421.824 283.079C420.163 283.078 418.709 282.458 417.662 281.427C416.615 282.458 415.161 283.078 413.5 283.079C411.837 283.079 410.382 282.456 409.335 281.423C408.288 282.455 406.834 283.079 405.173 283.079C403.512 283.078 402.057 282.458 401.011 281.427C399.964 282.458 398.51 283.079 396.849 283.079C395.425 283.079 394.156 282.617 393.161 281.838C393.941 282.833 394.398 284.105 394.398 285.529L394.368 286.148C394.079 289.189 391.67 291.404 388.525 291.404C387.101 291.404 385.831 290.945 384.838 290.167C385.616 291.161 386.071 292.432 386.071 293.855C386.071 295.517 385.451 296.971 384.42 298.018C385.452 299.065 386.071 300.522 386.071 302.184L386.044 302.803C385.911 304.206 385.32 305.429 384.42 306.344C385.452 307.391 386.071 308.847 386.071 310.51L386.044 311.128C385.911 312.532 385.323 313.758 384.423 314.673C385.454 315.72 386.071 317.174 386.071 318.835C386.071 320.497 385.451 321.951 384.42 322.998C385.452 324.046 386.071 325.502 386.071 327.165L386.044 327.783C385.911 329.186 385.323 330.409 384.423 331.324C385.454 332.371 386.071 333.828 386.071 335.49L386.044 336.109C385.911 337.512 385.323 338.738 384.423 339.653C385.454 340.7 386.071 342.155 386.071 343.816C386.071 345.478 385.451 346.931 384.42 347.979C385.452 349.026 386.071 350.482 386.071 352.145L386.044 352.763C385.911 354.167 385.324 355.393 384.423 356.308C385.453 357.355 386.071 358.809 386.071 360.471C386.071 362.132 385.453 363.586 384.423 364.633C385.454 365.68 386.071 367.135 386.071 368.796C386.071 370.458 385.451 371.912 384.42 372.959C385.452 374.006 386.071 375.462 386.071 377.125L386.044 377.744C385.755 380.786 383.343 383 380.198 383C378.536 383 377.082 382.38 376.036 381.348C374.989 382.379 373.535 383 371.874 383C368.519 383 366 380.481 366 377.125C366 375.463 366.617 374.006 367.648 372.959C366.618 371.912 366 370.457 366 368.796C366 367.136 366.615 365.68 367.645 364.633C366.616 363.586 366 362.131 366 360.471C366 358.81 366.615 357.355 367.645 356.308C366.615 355.261 366 353.805 366 352.145C366 350.483 366.617 349.026 367.648 347.979C366.618 346.932 366 345.477 366 343.816C366 342.156 366.615 340.7 367.645 339.653C366.615 338.606 366 337.15 366 335.49C366 333.829 366.615 332.371 367.645 331.324C366.616 330.277 366 328.824 366 327.165C366 325.503 366.617 324.046 367.648 322.998C366.618 321.951 366 320.496 366 318.835C366 317.175 366.615 315.72 367.645 314.673C366.615 313.626 366 312.17 366 310.51C366 308.848 366.617 307.391 367.648 306.344C366.619 305.297 366 303.844 366 302.184C366 300.523 366.617 299.065 367.648 298.018C366.618 296.971 366 295.516 366 293.855C366 292.195 366.615 290.739 367.645 289.692C366.615 288.645 366 287.19 366 285.529C366 283.868 366.617 282.411 367.648 281.363C366.618 280.316 366 278.861 366 277.2C366 275.54 366.615 274.084 367.645 273.038C366.616 271.991 366 270.535 366 268.875C366 265.519 368.518 263 371.874 263C373.533 263 374.989 263.616 376.036 264.645C377.082 263.616 378.538 263 380.198 263C383.553 263 386.071 265.519 386.071 268.875C386.071 270.536 385.453 271.99 384.423 273.038C385.454 274.085 386.071 275.539 386.071 277.2C386.071 278.622 385.617 279.892 384.841 280.885C385.834 280.109 387.104 279.655 388.525 279.655C389.943 279.655 391.21 280.108 392.202 280.882C391.428 279.889 390.975 278.62 390.975 277.2C390.976 273.845 393.494 271.326 396.849 271.326C398.271 271.326 399.539 271.783 400.533 272.559C399.756 271.566 399.299 270.297 399.299 268.875C399.299 265.519 401.818 263.001 405.173 263C406.833 263 408.288 263.618 409.335 264.648C410.382 263.617 411.839 263 413.5 263C415.16 263 416.615 263.616 417.662 264.645C418.709 263.616 420.164 263 421.824 263C423.484 263 424.939 263.618 425.986 264.648C427.033 263.618 428.488 263 430.148 263C431.808 263 433.263 263.619 434.31 264.648C435.357 263.617 436.814 263 438.475 263C441.83 263 444.349 265.519 444.349 268.875Z" fill="white"/>
<path d="M627.597 57L625.357 49.9H626.077L628.027 56.26L629.977 49.9H630.697L628.457 57H627.597ZM637.69 57V56.35H639.91V51.61H638.13V51.03H638.98C639.74 51.03 640.03 50.77 640.03 49.9H640.59V56.35H642.35V57H637.69ZM645.466 57V55.92H646.566V57H645.466ZM652.012 57.16C650.502 57.16 649.542 55.7 649.542 53.46C649.542 51.21 650.502 49.74 652.012 49.74C653.522 49.74 654.482 51.21 654.482 53.46C654.482 55.7 653.522 57.16 652.012 57.16ZM650.262 53.46C650.262 54.23 650.382 54.89 650.602 55.4L653.082 50.94C652.802 50.6 652.432 50.41 652.012 50.41C650.942 50.41 650.262 51.61 650.262 53.46ZM652.012 56.49C653.082 56.49 653.762 55.29 653.762 53.46C653.762 52.68 653.642 52.02 653.422 51.51L650.942 55.96C651.222 56.3 651.592 56.49 652.012 56.49ZM657.458 57V55.92H658.558V57H657.458ZM664.004 57.16C662.494 57.16 661.534 55.7 661.534 53.46C661.534 51.21 662.494 49.74 664.004 49.74C665.514 49.74 666.474 51.21 666.474 53.46C666.474 55.7 665.514 57.16 664.004 57.16ZM662.254 53.46C662.254 54.23 662.374 54.89 662.594 55.4L665.074 50.94C664.794 50.6 664.424 50.41 664.004 50.41C662.934 50.41 662.254 51.61 662.254 53.46ZM664.004 56.49C665.074 56.49 665.754 55.29 665.754 53.46C665.754 52.68 665.634 52.02 665.414 51.51L662.934 55.96C663.214 56.3 663.584 56.49 664.004 56.49Z" fill="white"/>
<path d="M63.67 57V54.1L61.43 49.9H62.21L64 53.4L65.79 49.9H66.57L64.35 54.1V57H63.67ZM69.9561 50.82V49.93H70.6561V50.82H69.9561ZM67.8661 57V56.41H70.0161V52.29H67.9661V51.7H70.6761V56.41H72.5261V57H67.8661ZM73.6622 57V56.41H75.8122V51.2C75.8122 50.75 75.5522 50.49 75.1022 50.49H73.8622V49.9H75.1222C75.9922 49.9 76.4722 50.38 76.4722 51.25V56.41H78.3222V57H73.6622ZM81.2983 57.12C80.2983 57.12 79.5583 56.55 79.5583 55.69C79.5583 54.82 80.1283 54.35 81.2183 54.13L83.0983 53.76C83.0983 52.7 82.6383 52.21 81.7883 52.21C80.9783 52.21 80.5183 52.61 80.3583 53.32L79.6583 53.26C79.8483 52.24 80.6083 51.58 81.7883 51.58C83.0383 51.58 83.7583 52.36 83.7583 53.74V55.95C83.7583 56.31 83.8783 56.41 84.1283 56.41H84.4583V57C84.3783 57.01 84.1883 57.02 84.0483 57.02C83.5083 57.02 83.1883 56.8 83.1083 56.17C82.8183 56.72 82.1183 57.12 81.2983 57.12ZM81.3583 56.53C82.4683 56.53 83.0983 55.86 83.0983 54.92V54.34L81.3583 54.68C80.5983 54.83 80.2583 55.12 80.2583 55.63C80.2583 56.21 80.6583 56.53 81.3583 56.53ZM85.8944 57V51.7H86.4944L86.5144 52.72C86.7844 51.96 87.4844 51.58 88.2544 51.58C89.4644 51.58 90.0744 52.47 90.0744 53.59V57H89.4144V53.83C89.4144 52.8 89.0144 52.17 88.1144 52.17C87.2044 52.17 86.5544 52.8 86.5544 53.83V57H85.8944ZM99.9666 57.16C98.4466 57.16 97.3866 55.85 97.3866 53.46C97.3866 51.2 98.3866 49.74 99.9866 49.74C101.277 49.74 102.127 50.63 102.437 52.01L101.727 52.07C101.477 51.05 100.917 50.41 99.9866 50.41C98.8266 50.41 98.1066 51.57 98.1066 53.46C98.1066 55.37 98.8266 56.49 100.027 56.49C101.097 56.49 101.797 55.53 101.837 54.15H100.017V53.51H102.467V57H101.847L101.827 55.79C101.497 56.61 100.897 57.16 99.9666 57.16ZM105.283 57.12C104.283 57.12 103.543 56.55 103.543 55.69C103.543 54.82 104.113 54.35 105.203 54.13L107.083 53.76C107.083 52.7 106.623 52.21 105.773 52.21C104.963 52.21 104.503 52.61 104.343 53.32L103.643 53.26C103.833 52.24 104.593 51.58 105.773 51.58C107.023 51.58 107.743 52.36 107.743 53.74V55.95C107.743 56.31 107.863 56.41 108.113 56.41H108.443V57C108.363 57.01 108.173 57.02 108.033 57.02C107.493 57.02 107.173 56.8 107.093 56.17C106.803 56.72 106.103 57.12 105.283 57.12ZM105.343 56.53C106.453 56.53 107.083 55.86 107.083 54.92V54.34L105.343 54.68C104.583 54.83 104.243 55.12 104.243 55.63C104.243 56.21 104.643 56.53 105.343 56.53ZM111.969 57.12C110.529 57.12 109.619 56.04 109.619 54.35C109.619 52.66 110.529 51.58 111.969 51.58C113.399 51.58 114.319 52.66 114.319 54.35C114.319 56.04 113.399 57.12 111.969 57.12ZM111.969 56.49C113.009 56.49 113.629 55.68 113.629 54.35C113.629 53.02 113.009 52.21 111.969 52.21C110.919 52.21 110.309 53.02 110.309 54.35C110.309 55.68 110.919 56.49 111.969 56.49Z" fill="white"/>
<path d="M63.99 406.12C62.28 406.12 61.13 404.6 61.13 402.43C61.13 400.26 62.28 398.74 63.99 398.74C65.7 398.74 66.87 400.26 66.87 402.43C66.87 404.6 65.7 406.12 63.99 406.12ZM63.99 405.61C65.41 405.61 66.33 404.32 66.33 402.43C66.33 400.53 65.41 399.25 63.99 399.25C62.57 399.25 61.67 400.53 61.67 402.43C61.67 404.32 62.57 405.61 63.99 405.61ZM64.02 404.56C62.99 404.56 62.3 403.68 62.3 402.44C62.3 401.21 62.99 400.32 64.02 400.32C64.87 400.32 65.55 400.9 65.66 401.83L65.1 401.88C65 401.23 64.61 400.88 64.02 400.88C63.28 400.88 62.86 401.52 62.86 402.44C62.86 403.37 63.28 404 64.02 404C64.62 404 65.03 403.63 65.13 402.92L65.69 402.97C65.57 403.95 64.89 404.56 64.02 404.56ZM73.5222 406C73.5222 404.57 74.1622 403.59 76.1822 402.54C77.2622 401.98 77.7122 401.61 77.7122 400.81C77.7122 400 77.1822 399.41 76.1522 399.41C75.0822 399.41 74.4422 400 74.2722 401.08L73.5622 401.03C73.7222 399.62 74.6622 398.74 76.1522 398.74C77.5822 398.74 78.4322 399.6 78.4322 400.79C78.4322 401.88 77.8822 402.43 76.4522 403.17C75.0822 403.88 74.4022 404.67 74.3522 405.34H78.4622V406H73.5222ZM81.9883 406.16C80.4783 406.16 79.5183 404.7 79.5183 402.46C79.5183 400.21 80.4783 398.74 81.9883 398.74C83.4983 398.74 84.4583 400.21 84.4583 402.46C84.4583 404.7 83.4983 406.16 81.9883 406.16ZM80.2383 402.46C80.2383 403.23 80.3583 403.89 80.5783 404.4L83.0583 399.94C82.7783 399.6 82.4083 399.41 81.9883 399.41C80.9183 399.41 80.2383 400.61 80.2383 402.46ZM81.9883 405.49C83.0583 405.49 83.7383 404.29 83.7383 402.46C83.7383 401.68 83.6183 401.02 83.3983 400.51L80.9183 404.96C81.1983 405.3 81.5683 405.49 81.9883 405.49ZM85.5144 406C85.5144 404.57 86.1544 403.59 88.1744 402.54C89.2544 401.98 89.7044 401.61 89.7044 400.81C89.7044 400 89.1744 399.41 88.1444 399.41C87.0744 399.41 86.4344 400 86.2644 401.08L85.5544 401.03C85.7144 399.62 86.6544 398.74 88.1444 398.74C89.5744 398.74 90.4244 399.6 90.4244 400.79C90.4244 401.88 89.8744 402.43 88.4444 403.17C87.0744 403.88 86.3944 404.67 86.3444 405.34H90.4544V406H85.5144ZM94.0205 406.16C92.5005 406.16 91.5505 405.09 91.5505 403.01C91.5505 400.66 92.2705 398.74 94.2505 398.74C95.4405 398.74 96.0905 399.42 96.3705 400.4L95.6605 400.47C95.4905 399.85 95.0705 399.41 94.2505 399.41C93.1405 399.41 92.4005 400.34 92.2605 402.26L92.2505 402.28C92.6005 401.67 93.2805 401.24 94.1205 401.24C95.5205 401.24 96.4105 402.2 96.4105 403.65C96.4105 405.19 95.4505 406.16 94.0205 406.16ZM94.0305 405.49C95.0405 405.49 95.7005 404.81 95.7005 403.65C95.7005 402.58 95.0805 401.89 94.0805 401.89C93.0905 401.89 92.3005 402.57 92.3005 403.62C92.3005 404.7 92.9805 405.49 94.0305 405.49Z" fill="white"/>
<path d="M338.112 406.16C336.472 406.16 335.492 404.73 335.492 402.46C335.492 400.17 336.472 398.74 338.112 398.74C339.362 398.74 340.232 399.59 340.532 401.05L339.812 401.11C339.572 400 338.952 399.41 338.112 399.41C336.932 399.41 336.212 400.54 336.212 402.46C336.212 404.37 336.932 405.49 338.112 405.49C339.002 405.49 339.662 404.86 339.872 403.64L340.592 403.69C340.332 405.22 339.422 406.16 338.112 406.16ZM344.078 406.12C342.638 406.12 341.728 405.04 341.728 403.35C341.728 401.66 342.638 400.58 344.078 400.58C345.508 400.58 346.428 401.66 346.428 403.35C346.428 405.04 345.508 406.12 344.078 406.12ZM344.078 405.49C345.118 405.49 345.738 404.68 345.738 403.35C345.738 402.02 345.118 401.21 344.078 401.21C343.028 401.21 342.418 402.02 342.418 403.35C342.418 404.68 343.028 405.49 344.078 405.49ZM348.304 403.43V402.81H351.844V403.43H348.304ZM355.38 406.12C354.38 406.12 353.64 405.55 353.64 404.69C353.64 403.82 354.21 403.35 355.3 403.13L357.18 402.76C357.18 401.7 356.72 401.21 355.87 401.21C355.06 401.21 354.6 401.61 354.44 402.32L353.74 402.26C353.93 401.24 354.69 400.58 355.87 400.58C357.12 400.58 357.84 401.36 357.84 402.74V404.95C357.84 405.31 357.96 405.41 358.21 405.41H358.54V406C358.46 406.01 358.27 406.02 358.13 406.02C357.59 406.02 357.27 405.8 357.19 405.17C356.9 405.72 356.2 406.12 355.38 406.12ZM355.44 405.53C356.55 405.53 357.18 404.86 357.18 403.92V403.34L355.44 403.68C354.68 403.83 354.34 404.12 354.34 404.63C354.34 405.21 354.74 405.53 355.44 405.53ZM361.736 406.12C360.676 406.12 359.996 405.37 359.996 404.11V400.7H360.656V403.91C360.656 405 361.076 405.53 361.916 405.53C362.816 405.53 363.386 404.89 363.386 403.86V400.7H364.046V406H363.426L363.416 405.04C363.156 405.73 362.556 406.12 361.736 406.12ZM368.773 406C367.853 406 367.383 405.55 367.383 404.65V401.29H365.593V400.7H367.383V399.46H368.043V400.7H370.193V401.29H368.043V404.67C368.043 405.16 368.283 405.41 368.763 405.41H370.193V406H368.773ZM372.129 406V398.9H372.789V401.64C373.039 400.92 373.679 400.58 374.449 400.58C375.609 400.58 376.209 401.43 376.209 402.59V406H375.549V402.83C375.549 401.77 375.169 401.17 374.309 401.17C373.369 401.17 372.789 401.8 372.789 402.84V406H372.129ZM380.055 406.12C378.615 406.12 377.705 405.04 377.705 403.35C377.705 401.66 378.615 400.58 380.055 400.58C381.485 400.58 382.405 401.66 382.405 403.35C382.405 405.04 381.485 406.12 380.055 406.12ZM380.055 405.49C381.095 405.49 381.715 404.68 381.715 403.35C381.715 402.02 381.095 401.21 380.055 401.21C379.005 401.21 378.395 402.02 378.395 403.35C378.395 404.68 379.005 405.49 380.055 405.49ZM383.981 406V405.41H385.411V401.29H383.981V400.7H385.961L386.011 401.81C386.201 401.07 386.641 400.7 387.341 400.7H388.381V401.31H387.331C386.541 401.31 386.071 401.89 386.071 402.77V405.41H387.781V406H383.981ZM392.107 406.12C390.597 406.12 389.717 404.97 389.717 403.35C389.717 401.73 390.587 400.58 392.067 400.58C393.487 400.58 394.377 401.67 394.377 403.33V403.54H390.407C390.457 404.8 391.097 405.49 392.107 405.49C392.877 405.49 393.377 405.08 393.567 404.47L394.277 404.52C394.007 405.46 393.207 406.12 392.107 406.12ZM390.407 402.95H393.657C393.587 401.82 392.987 401.21 392.067 401.21C391.147 401.21 390.527 401.84 390.407 402.95ZM397.743 406.12C396.353 406.12 395.493 405.05 395.493 403.35C395.493 401.66 396.353 400.58 397.743 400.58C398.533 400.58 399.153 401.06 399.413 401.61V398.9H400.073V406H399.493L399.463 405.04C399.163 405.69 398.533 406.12 397.743 406.12ZM397.773 405.49C398.783 405.49 399.413 404.64 399.413 403.35C399.413 402.05 398.783 401.21 397.763 401.21C396.793 401.21 396.183 402.03 396.183 403.35C396.183 404.66 396.793 405.49 397.773 405.49ZM408.405 406L407.265 400.7H407.985L408.835 405.31L409.715 401.43H410.355L411.235 405.31L412.085 400.7H412.805L411.675 406H410.845L410.035 402.39L409.225 406H408.405ZM414.201 407.1L417.221 398.51H417.861L414.841 407.1H414.201ZM428.053 406.16C426.413 406.16 425.433 404.73 425.433 402.46C425.433 400.17 426.413 398.74 428.053 398.74C429.303 398.74 430.173 399.59 430.473 401.05L429.753 401.11C429.513 400 428.893 399.41 428.053 399.41C426.873 399.41 426.153 400.54 426.153 402.46C426.153 404.37 426.873 405.49 428.053 405.49C428.943 405.49 429.603 404.86 429.813 403.64L430.533 403.69C430.273 405.22 429.363 406.16 428.053 406.16ZM433.69 406.12C432.63 406.12 431.95 405.37 431.95 404.11V400.7H432.61V403.91C432.61 405 433.03 405.53 433.87 405.53C434.77 405.53 435.34 404.89 435.34 403.86V400.7H436V406H435.38L435.37 405.04C435.11 405.73 434.51 406.12 433.69 406.12ZM437.946 406V405.41H439.376V401.29H437.946V400.7H439.926L439.976 401.81C440.166 401.07 440.606 400.7 441.306 400.7H442.346V401.31H441.296C440.506 401.31 440.036 401.89 440.036 402.77V405.41H441.746V406H437.946ZM446.112 406.12C444.742 406.12 443.922 405.35 443.842 404.37L444.532 404.32C444.612 405.04 445.172 405.49 446.112 405.49C447.012 405.49 447.502 405.21 447.502 404.65C447.502 404.15 447.262 403.92 445.952 403.7C444.412 403.44 444.002 402.99 444.002 402.15C444.002 401.23 444.712 400.58 445.962 400.58C447.232 400.58 447.902 401.34 448.062 402.24L447.372 402.3C447.262 401.69 446.782 401.21 445.952 401.21C445.112 401.21 444.682 401.59 444.682 402.15C444.682 402.75 445.022 402.94 446.122 403.12C447.732 403.37 448.182 403.8 448.182 404.65C448.182 405.58 447.342 406.12 446.112 406.12ZM452.008 406.12C450.568 406.12 449.658 405.04 449.658 403.35C449.658 401.66 450.568 400.58 452.008 400.58C453.438 400.58 454.358 401.66 454.358 403.35C454.358 405.04 453.438 406.12 452.008 406.12ZM452.008 405.49C453.048 405.49 453.668 404.68 453.668 403.35C453.668 402.02 453.048 401.21 452.008 401.21C450.958 401.21 450.348 402.02 450.348 403.35C450.348 404.68 450.958 405.49 452.008 405.49ZM455.934 406V405.41H457.364V401.29H455.934V400.7H457.914L457.964 401.81C458.154 401.07 458.594 400.7 459.294 400.7H460.334V401.31H459.284C458.494 401.31 458.024 401.89 458.024 402.77V405.41H459.734V406H455.934Z" fill="white"/>
<path d="M314.056 57V49.9H316.136C317.606 49.9 318.556 50.7 318.556 52.03C318.556 53.36 317.606 54.14 316.136 54.14H314.736V57H314.056ZM314.736 53.48H316.056C317.236 53.48 317.836 52.98 317.836 52.03C317.836 51.08 317.236 50.56 316.056 50.56H314.736V53.48ZM322.142 57.12C320.632 57.12 319.752 55.97 319.752 54.35C319.752 52.73 320.622 51.58 322.102 51.58C323.522 51.58 324.412 52.67 324.412 54.33V54.54H320.442C320.492 55.8 321.132 56.49 322.142 56.49C322.912 56.49 323.412 56.08 323.602 55.47L324.312 55.52C324.042 56.46 323.242 57.12 322.142 57.12ZM320.442 53.95H323.692C323.622 52.82 323.022 52.21 322.102 52.21C321.182 52.21 320.562 52.84 320.442 53.95ZM326.008 57V56.41H327.438V52.29H326.008V51.7H327.988L328.038 52.81C328.228 52.07 328.668 51.7 329.368 51.7H330.408V52.31H329.358C328.568 52.31 328.098 52.89 328.098 53.77V56.41H329.808V57H326.008ZM334.174 57.12C332.804 57.12 331.984 56.35 331.904 55.37L332.594 55.32C332.674 56.04 333.234 56.49 334.174 56.49C335.074 56.49 335.564 56.21 335.564 55.65C335.564 55.15 335.324 54.92 334.014 54.7C332.474 54.44 332.064 53.99 332.064 53.15C332.064 52.23 332.774 51.58 334.024 51.58C335.294 51.58 335.964 52.34 336.124 53.24L335.434 53.3C335.324 52.69 334.844 52.21 334.014 52.21C333.174 52.21 332.744 52.59 332.744 53.15C332.744 53.75 333.084 53.94 334.184 54.12C335.794 54.37 336.244 54.8 336.244 55.65C336.244 56.58 335.404 57.12 334.174 57.12ZM340.07 57.12C338.63 57.12 337.72 56.04 337.72 54.35C337.72 52.66 338.63 51.58 340.07 51.58C341.5 51.58 342.42 52.66 342.42 54.35C342.42 56.04 341.5 57.12 340.07 57.12ZM340.07 56.49C341.11 56.49 341.73 55.68 341.73 54.35C341.73 53.02 341.11 52.21 340.07 52.21C339.02 52.21 338.41 53.02 338.41 54.35C338.41 55.68 339.02 56.49 340.07 56.49ZM343.976 57V51.7H344.576L344.596 52.72C344.866 51.96 345.566 51.58 346.336 51.58C347.546 51.58 348.156 52.47 348.156 53.59V57H347.496V53.83C347.496 52.8 347.096 52.17 346.196 52.17C345.286 52.17 344.636 52.8 344.636 53.83V57H343.976ZM351.373 57.12C350.373 57.12 349.633 56.55 349.633 55.69C349.633 54.82 350.203 54.35 351.293 54.13L353.173 53.76C353.173 52.7 352.713 52.21 351.863 52.21C351.053 52.21 350.593 52.61 350.433 53.32L349.733 53.26C349.923 52.24 350.683 51.58 351.863 51.58C353.113 51.58 353.833 52.36 353.833 53.74V55.95C353.833 56.31 353.953 56.41 354.202 56.41H354.533V57C354.453 57.01 354.263 57.02 354.123 57.02C353.583 57.02 353.263 56.8 353.183 56.17C352.893 56.72 352.193 57.12 351.373 57.12ZM351.433 56.53C352.543 56.53 353.173 55.86 353.173 54.92V54.34L351.433 54.68C350.673 54.83 350.333 55.12 350.333 55.63C350.333 56.21 350.733 56.53 351.433 56.53ZM355.729 57V56.41H357.879V51.2C357.879 50.75 357.619 50.49 357.169 50.49H355.929V49.9H357.189C358.059 49.9 358.539 50.38 358.539 51.25V56.41H360.389V57H355.729ZM367.981 57V49.9H369.571C371.461 49.9 372.641 51.19 372.641 53.46C372.641 55.73 371.461 57 369.571 57H367.981ZM368.661 56.34H369.521C371.051 56.34 371.921 55.36 371.921 53.46C371.921 51.56 371.041 50.56 369.521 50.56H368.661V56.34ZM376.107 57.12C374.597 57.12 373.717 55.97 373.717 54.35C373.717 52.73 374.587 51.58 376.067 51.58C377.487 51.58 378.377 52.67 378.377 54.33V54.54H374.407C374.457 55.8 375.097 56.49 376.107 56.49C376.877 56.49 377.377 56.08 377.567 55.47L378.277 55.52C378.007 56.46 377.207 57.12 376.107 57.12ZM374.407 53.95H377.657C377.587 52.82 376.987 52.21 376.067 52.21C375.147 52.21 374.527 52.84 374.407 53.95ZM382.143 57.12C380.773 57.12 379.953 56.35 379.873 55.37L380.563 55.32C380.643 56.04 381.203 56.49 382.143 56.49C383.043 56.49 383.533 56.21 383.533 55.65C383.533 55.15 383.293 54.92 381.983 54.7C380.443 54.44 380.033 53.99 380.033 53.15C380.033 52.23 380.743 51.58 381.993 51.58C383.263 51.58 383.933 52.34 384.093 53.24L383.403 53.3C383.293 52.69 382.813 52.21 381.983 52.21C381.143 52.21 380.713 52.59 380.713 53.15C380.713 53.75 381.053 53.94 382.153 54.12C383.763 54.37 384.213 54.8 384.213 55.65C384.213 56.58 383.373 57.12 382.143 57.12ZM387.999 50.82V49.93H388.699V50.82H387.999ZM385.909 57V56.41H388.059V52.29H386.009V51.7H388.719V56.41H390.569V57H385.909ZM393.985 58.62C392.855 58.62 392.015 57.99 391.855 57.07L392.545 57.03C392.665 57.61 393.115 57.99 393.985 57.99C395.015 57.99 395.595 57.5 395.595 56.58V55.67C395.315 56.31 394.695 56.73 393.935 56.73C392.595 56.73 391.665 55.69 391.665 54.15C391.665 52.62 392.575 51.58 393.915 51.58C394.715 51.58 395.365 52.03 395.615 52.69V51.7H396.255V56.58C396.255 57.85 395.405 58.62 393.985 58.62ZM393.965 56.1C394.945 56.1 395.585 55.35 395.595 54.15C395.605 52.99 394.955 52.21 393.965 52.21C392.965 52.21 392.365 52.96 392.365 54.15C392.365 55.35 392.975 56.1 393.965 56.1ZM397.941 57V51.7H398.541L398.561 52.72C398.831 51.96 399.531 51.58 400.301 51.58C401.511 51.58 402.121 52.47 402.121 53.59V57H401.461V53.83C401.461 52.8 401.061 52.17 400.161 52.17C399.251 52.17 398.601 52.8 398.601 53.83V57H397.941ZM412.123 57.16C410.663 57.16 409.593 56.15 409.513 54.76L410.223 54.71C410.313 55.78 411.053 56.49 412.143 56.49C413.163 56.49 413.823 56.04 413.823 55.25C413.823 54.53 413.453 54.13 411.753 53.65C410.293 53.25 409.673 52.78 409.673 51.7C409.673 50.57 410.553 49.74 411.983 49.74C413.443 49.74 414.283 50.75 414.383 51.97L413.673 52.02C413.593 51.11 413.023 50.41 411.963 50.41C410.993 50.41 410.383 50.93 410.383 51.68C410.383 52.42 410.773 52.69 412.153 53.06C413.963 53.55 414.533 54.15 414.533 55.27C414.533 56.4 413.513 57.16 412.123 57.16ZM416.39 58.5V57.91H416.93C417.37 57.91 417.54 57.79 417.67 57.44L417.88 56.9H417.63L415.62 51.7H416.34L418.08 56.31L419.7 51.7H420.42L418.25 57.66C418.03 58.25 417.69 58.5 416.99 58.5H416.39ZM424.116 57.12C422.746 57.12 421.926 56.35 421.846 55.37L422.536 55.32C422.616 56.04 423.176 56.49 424.116 56.49C425.016 56.49 425.506 56.21 425.506 55.65C425.506 55.15 425.266 54.92 423.956 54.7C422.416 54.44 422.006 53.99 422.006 53.15C422.006 52.23 422.716 51.58 423.966 51.58C425.236 51.58 425.906 52.34 426.066 53.24L425.376 53.3C425.266 52.69 424.786 52.21 423.956 52.21C423.116 52.21 422.686 52.59 422.686 53.15C422.686 53.75 423.026 53.94 424.126 54.12C425.736 54.37 426.186 54.8 426.186 55.65C426.186 56.58 425.346 57.12 424.116 57.12ZM430.722 57C429.802 57 429.332 56.55 429.332 55.65V52.29H427.542V51.7H429.332V50.46H429.992V51.7H432.142V52.29H429.992V55.67C429.992 56.16 430.232 56.41 430.712 56.41H432.142V57H430.722ZM436.068 57.12C434.558 57.12 433.678 55.97 433.678 54.35C433.678 52.73 434.548 51.58 436.028 51.58C437.448 51.58 438.338 52.67 438.338 54.33V54.54H434.368C434.418 55.8 435.058 56.49 436.068 56.49C436.838 56.49 437.338 56.08 437.528 55.47L438.238 55.52C437.968 56.46 437.168 57.12 436.068 57.12ZM434.368 53.95H437.618C437.548 52.82 436.948 52.21 436.028 52.21C435.108 52.21 434.488 52.84 434.368 53.95ZM439.434 57V51.7H440.044L440.064 52.58C440.244 51.94 440.614 51.58 441.144 51.58C441.714 51.58 442.054 51.96 442.184 52.71V52.73C442.364 52 442.784 51.58 443.364 51.58C444.194 51.58 444.574 52.13 444.574 53.47V57H443.914V53.56C443.914 52.55 443.684 52.17 443.194 52.17C442.704 52.17 442.334 52.69 442.334 53.61V57H441.674V53.6C441.674 52.64 441.454 52.17 440.944 52.17C440.464 52.17 440.094 52.7 440.094 53.61V57H439.434Z" fill="white"/>
<line x1="60.5" y1="40" x2="60.5" y2="-2.18557e-08" stroke="white"/>
<line x1="667.5" y1="71" x2="667.5" y2="467" stroke="white"/>
<line x1="313.5" y1="-2.18557e-08" x2="313.5" y2="40" stroke="white"/>
</svg>
