<svg width="74" height="74" viewBox="0 0 74 74" fill="none" xmlns="http://www.w3.org/2000/svg">
<path d="M19.8206 14.5386H12.3335V37L27.3077 37C27.3077 43.4536 26.2242 50.6266 16.0278 50.6266L16.0278 59.4614C27.3077 59.4614 34.7949 53.3356 34.7949 37V14.5386H27.3077C27.3077 16.6061 25.6317 18.2822 23.5642 18.2822C21.4967 18.2822 19.8206 16.6061 19.8206 14.5386Z" fill="#3336FF"/>
<path fill-rule="evenodd" clip-rule="evenodd" d="M61 14.5386H38.5386V37L53.5128 37C53.5128 43.4536 52.4293 50.6266 42.2328 50.6266L42.2328 59.4614C53.5128 59.4614 61 53.3356 61 37V14.5386ZM49.7693 22.0258C47.7017 22.0258 46.0257 23.7018 46.0257 25.7693C46.0257 27.8368 47.7017 29.5129 49.7693 29.5129C51.8368 29.5129 53.5128 27.8368 53.5128 25.7693C53.5128 23.7018 51.8368 22.0258 49.7693 22.0258Z" fill="#3336FF"/>
</svg>
